<svg width="2652" height="318" viewBox="0 0 2652 318" fill="none" xmlns="http://www.w3.org/2000/svg">
<g filter="url(#filter0_d)">
<path d="M8 244V189H104C119 189 128.5 176 128.5 163.5V90.5005C128.5 78.5005 122 65.5005 98.5 65.5005H67.5V162.5L8.5 109.001V10.5005H101C161 10.5005 187.5 53.0005 187.5 81.5005V163.5C187.5 222.5 140 244 107 244H8Z" fill="#7289DA"/>
<path d="M220.5 244.5H279.5V10.5005H220.5V244.5Z" fill="#7289DA"/>
<path d="M343.5 170.5L306.5 205.5C326 234.001 360.5 248 384 248H395C423.5 246.501 476 227.001 478.5 179.5V159.5C469.5 88.0005 371.5 109.001 366.5 78.5005V72.5005C366.5 68.0005 375 54.5005 389.5 54.5005H397.5C409.5 54.5005 425.5 65.5005 435.5 73.5005L473.5 44.5005C464.5 33.5005 442.5 7.50049 402.5 7.50049H382.5C355 7.50049 308.5 30.0005 308.5 69.5005V85.5005C314 128.001 346 145.5 382.5 151.5C412 157.5 419 165.5 420.5 172.5V177.5C415 199 368 198.5 343.5 170.5Z" fill="#7289DA"/>
<path d="M677 195.5L626 172C618.5 191.5 573 204.5 559.5 172V82.0005C574.5 47.0005 624 63.5005 627.5 79.5005L675.5 61.0005C666 36.0005 644.5 7.50053 593 7.50049C541.5 7.50046 500 37.5005 500 82.0005V172C503.5 227.5 554 248 593 248C635.5 248 666 219 677 195.5Z" fill="#7289DA"/>
<path fill-rule="evenodd" clip-rule="evenodd" d="M791.5 7.50049C735.5 7.50052 694.5 39.5005 694.5 84.5005V171C694.5 216 735.5 248 791.5 248C847.5 248 888.5 216.001 888.5 171.001V84.4998C888.5 39.4998 847.5 7.50052 791.5 7.50049ZM791.5 194C773 194 753.5 182 753.5 171V84.4998C753.5 73.5005 773 61.5005 791.5 61.5005C810 61.5005 829.5 73.5005 829.5 84.4998V171C829.5 182 810 194 791.5 194Z" fill="#7289DA"/>
<path fill-rule="evenodd" clip-rule="evenodd" d="M921.5 244.5V9.99988H1015C1068 7.49988 1102.5 38.4999 1102.5 84.4999C1102.5 130.5 1089.5 151.5 1056.5 165L1120 244H1047L992 170H980.5V244.5H921.5ZM1018.5 119.5H981V65.4999H1018.5C1032 65.4999 1044.5 77.9999 1044.5 88.4999V96.4999C1044.5 107 1031 119.5 1018.5 119.5Z" fill="#7289DA"/>
<path d="M1137 244V189H1233C1248 189 1257.5 176 1257.5 163.5V90.4999C1257.5 78.4999 1251 65.4999 1227.5 65.4999H1196.5V162.5L1137.5 109V10.4999H1230C1290 10.4999 1316.5 52.9999 1316.5 81.4999V163.5C1316.5 222.5 1269 244 1236 244H1137Z" fill="#7289DA"/>
<path fill-rule="evenodd" clip-rule="evenodd" d="M1502.5 6C1446.5 6.00003 1405.5 38 1405.5 83V169.5C1405.5 214.5 1446.5 246.5 1502.5 246.5C1558.5 246.5 1599.5 214.501 1599.5 169.501V82.9994C1599.5 37.9994 1558.5 6.00003 1502.5 6ZM1502.5 192.499C1484 192.499 1464.5 180.499 1464.5 169.5V82.9994C1464.5 72 1484 60 1502.5 60C1521 60 1540.5 72 1540.5 82.9994V169.5C1540.5 180.499 1521 192.499 1502.5 192.499Z" fill="#7289DA"/>
<path d="M1603.5 10.5L1669 128L1629 198C1648 201 1669 213 1669 244.5H1672L1712.5 165.5L1754 244.5H1822.5L1757 128L1821.5 13.5L1901.5 151.5V244.5H1961.5V151.5L2043.5 10.5H1973.5L1931.5 95.5L1888.5 10.5H1753.36L1712.5 89.5L1672.5 10.5H1603.5Z" fill="#7289DA"/>
<path d="M1592.5 232.5C1601 218 1612 213.5 1624.5 213.5C1646.5 213.5 1653.5 229.5 1653.5 240.5C1653.5 264.5 1635 271 1623.5 284.5C1631.5 281.5 1641.5 282.5 1653.5 282.5V303.5H1596L1590.5 292.5L1628.5 248.5C1630.5 246 1630.5 245 1630.5 242.5C1630.5 238.5 1627.5 234 1621 234C1615.5 234 1612.5 238 1608.5 242.5L1592.5 234V232.5Z" fill="#7289DA"/>
<path d="M2133 157.5V109H2227V171C2227 216 2189 248 2133 248C2079 247 2043 212 2041.5 166V89C2042.5 40 2077 8.5 2133 7C2189 7.00003 2207 36.5 2216.5 56.5L2167.5 79.5C2161 69 2154.5 59 2133 59C2115.47 59 2104 69 2101.5 83.9994L2100.5 166C2102 181 2114.5 194 2133 194C2158 194 2169.5 181.5 2171 171.001V157.5H2133Z" fill="#7289DA"/>
<path d="M2256 244.5H2419.5V189.5H2315.5V153H2411.5V101.5H2316V66H2419.5V10H2256V244.5Z" fill="#7289DA"/>
<path d="M2452 244.5V10H2508L2581 140.5V10H2639.5V244.5H2581L2508 114V244.5H2452Z" fill="#7289DA"/>
</g>
<defs>
<filter id="filter0_d" x="0" y="0" width="2651.5" height="317.5" filterUnits="userSpaceOnUse" color-interpolation-filters="sRGB">
<feFlood flood-opacity="0" result="BackgroundImageFix"/>
<feColorMatrix in="SourceAlpha" type="matrix" values="0 0 0 0 0 0 0 0 0 0 0 0 0 0 0 0 0 0 127 0" result="hardAlpha"/>
<feOffset dx="2" dy="4"/>
<feGaussianBlur stdDeviation="5"/>
<feComposite in2="hardAlpha" operator="out"/>
<feColorMatrix type="matrix" values="0 0 0 0 0 0 0 0 0 0 0 0 0 0 0 0 0 0 0.25 0"/>
<feBlend mode="normal" in2="BackgroundImageFix" result="effect1_dropShadow"/>
<feBlend mode="normal" in="SourceGraphic" in2="effect1_dropShadow" result="shape"/>
</filter>
</defs>
</svg>
