<svg width="512" height="512" viewBox="0 0 512 512" fill="none" xmlns="http://www.w3.org/2000/svg">
<circle cx="256" cy="256" r="256" fill="#555A66"/>
<mask id="mask0" mask-type="alpha" maskUnits="userSpaceOnUse" x="0" y="0" width="512" height="512">
<circle cx="256" cy="256" r="256" fill="#555A66"/>
</mask>
<g mask="url(#mask0)">
<path d="M377 104L511 238V387L320 578L177 435V204L228.5 132.5L219 123V77H293L320 104H377Z" fill="#414952"/>
</g>
<rect x="218" y="77" width="38" height="46" fill="white"/>
<path d="M294 77H256V123H294V115H332C351.5 115 370 135.5 370 150V262H400V150C400 115 370 84 331 85H294V77Z" fill="#E9EDF5"/>
<path d="M177 435H256V123C211.5 123 177 159 177 202V435Z" fill="#4BCDD7"/>
<path d="M335 435H256V123C300.5 123 335 159 335 202V435Z" fill="#00B8C1"/>
<path fill-rule="evenodd" clip-rule="evenodd" d="M256 194C222.311 194 195 221.311 195 255C195 288.689 222.311 316 256 316V286C238.879 286 225 272.121 225 255C225 237.879 238.879 224 256 224V194Z" fill="white"/>
<path fill-rule="evenodd" clip-rule="evenodd" d="M256 194C289.689 194 317 221.311 317 255C317 288.689 289.689 316 256 316V286C273.121 286 287 272.121 287 255C287 237.879 273.121 224 256 224V194Z" fill="#E9EDF5"/>
<path d="M299 327C295.686 327 293 329.686 293 333L292 335L278 334V333C278 324.716 284.716 318 293 318H304C312.284 318 319 324.716 319 333C319 336.842 317.556 340.346 315.181 343L297 358V359H319V370H277V368C277 363.093 279.356 358.737 282.999 356L304.197 336C304.708 335.117 305 334.093 305 333C305 329.686 302.314 327 299 327Z" fill="#E9EDF5"/>
</svg>
