<svg width="3243" height="512" viewBox="0 0 3243 512" fill="none" xmlns="http://www.w3.org/2000/svg">
<circle cx="256" cy="256" r="256" fill="#555A66"/>
<mask id="mask0" mask-type="alpha" maskUnits="userSpaceOnUse" x="0" y="0" width="512" height="512">
<circle cx="256" cy="256" r="256" fill="#555A66"/>
</mask>
<g mask="url(#mask0)">
<path d="M377 104L511 238V387L320 578L177 435V204L228.5 132.5L219 123V77H293L320 104H377Z" fill="#414952"/>
</g>
<rect x="218" y="77" width="38" height="46" fill="white"/>
<path d="M294 77H256V123H294V115H332C351.5 115 370 135.5 370 150V262H400V150C400 115 370 84 331 85H294V77Z" fill="#E9EDF5"/>
<path d="M177 435H256V123C211.5 123 177 159 177 202V435Z" fill="#4BCDD7"/>
<path d="M335 435H256V123C300.5 123 335 159 335 202V435Z" fill="#00B8C1"/>
<path fill-rule="evenodd" clip-rule="evenodd" d="M256 194C222.311 194 195 221.311 195 255C195 288.689 222.311 316 256 316V286C238.879 286 225 272.121 225 255C225 237.879 238.879 224 256 224V194Z" fill="white"/>
<path fill-rule="evenodd" clip-rule="evenodd" d="M256 194C289.689 194 317 221.311 317 255C317 288.689 289.689 316 256 316V286C273.121 286 287 272.121 287 255C287 237.879 273.121 224 256 224V194Z" fill="#E9EDF5"/>
<path d="M299 327C295.686 327 293 329.686 293 333L292 335L278 334V333C278 324.716 284.716 318 293 318H304C312.284 318 319 324.716 319 333C319 336.842 317.556 340.346 315.181 343L297 358V359H319V370H277V368C277 363.093 279.356 358.737 282.999 356L304.197 336C304.708 335.117 305 334.093 305 333C305 329.686 302.314 327 299 327Z" fill="#E9EDF5"/>
<g filter="url(#filter0_d)">
<path d="M599 378V323H695C710 323 719.5 310 719.5 297.5V224.501C719.5 212.501 713 199.5 689.5 199.5H658.5V296.5L599.5 243.001V144.5H692C752 144.5 778.5 187.001 778.5 215.501V297.5C778.5 356.5 731 378 698 378H599Z" fill="#7289DA"/>
<path d="M811.5 378.5H870.5V144.5H811.5V378.5Z" fill="#7289DA"/>
<path d="M934.5 304.5L897.5 339.5C917 368.001 951.5 382 975 382H986C1014.5 380.501 1067 361.001 1069.5 313.5V293.5C1060.5 222.001 962.5 243.001 957.5 212.501V206.501C957.5 202.001 966 188.5 980.5 188.5H988.5C1000.5 188.5 1016.5 199.501 1026.5 207.501L1064.5 178.5C1055.5 167.5 1033.5 141.5 993.5 141.5H973.5C946 141.5 899.5 164 899.5 203.5V219.501C905 262.001 937 279.5 973.5 285.5C1003 291.5 1010 299.5 1011.5 306.5V311.5C1006 333 959 332.5 934.5 304.5Z" fill="#7289DA"/>
<path d="M1268 329.5L1217 306C1209.5 325.5 1164 338.5 1150.5 306V216.001C1165.5 181 1215 197.5 1218.5 213.501L1266.5 195C1257 170 1235.5 141.501 1184 141.5C1132.5 141.5 1091 171.5 1091 216.001V306C1094.5 361.5 1145 382 1184 382C1226.5 382 1257 353 1268 329.5Z" fill="#7289DA"/>
<path fill-rule="evenodd" clip-rule="evenodd" d="M1382.5 141.5C1326.5 141.501 1285.5 173.5 1285.5 218.5V305C1285.5 350 1326.5 382 1382.5 382C1438.5 382 1479.5 350.001 1479.5 305.001V218.5C1479.5 173.5 1438.5 141.501 1382.5 141.5ZM1382.5 328C1364 328 1344.5 316 1344.5 305V218.5C1344.5 207.5 1364 195.5 1382.5 195.5C1401 195.5 1420.5 207.5 1420.5 218.5V305C1420.5 316 1401 328 1382.5 328Z" fill="#7289DA"/>
<path fill-rule="evenodd" clip-rule="evenodd" d="M1512.5 378.5V144H1606C1659 141.5 1693.5 172.5 1693.5 218.5C1693.5 264.5 1680.5 285.5 1647.5 299L1711 378H1638L1583 304H1571.5V378.5H1512.5ZM1609.5 253.5H1572V199.5H1609.5C1623 199.5 1635.5 212 1635.5 222.5V230.5C1635.5 241 1622 253.5 1609.5 253.5Z" fill="#7289DA"/>
<path d="M1728 378V323H1824C1839 323 1848.5 310 1848.5 297.5V224.5C1848.5 212.5 1842 199.5 1818.5 199.5H1787.5V296.5L1728.5 243V144.5H1821C1881 144.5 1907.5 187 1907.5 215.5V297.5C1907.5 356.5 1860 378 1827 378H1728Z" fill="#7289DA"/>
<path fill-rule="evenodd" clip-rule="evenodd" d="M2093.5 140C2037.5 140 1996.5 172 1996.5 217V303.5C1996.5 348.5 2037.5 380.5 2093.5 380.5C2149.5 380.5 2190.5 348.501 2190.5 303.501V216.999C2190.5 171.999 2149.5 140 2093.5 140ZM2093.5 326.499C2075 326.499 2055.5 314.499 2055.5 303.5V216.999C2055.5 206 2075 194 2093.5 194C2112 194 2131.5 206 2131.5 216.999V303.5C2131.5 314.499 2112 326.499 2093.5 326.499Z" fill="#7289DA"/>
<path d="M2194.5 144.5L2260 262L2220 332C2239 335 2260 347 2260 378.5H2263L2303.5 299.5L2345 378.5H2413.5L2348 262L2412.5 147.5L2492.5 285.5V378.5H2552.5V285.5L2634.5 144.5H2564.5L2522.5 229.5L2479.5 144.5H2344.36L2303.5 223.5L2263.5 144.5H2194.5Z" fill="#7289DA"/>
<path d="M2183.5 366.5C2192 352 2203 347.5 2215.5 347.5C2237.5 347.5 2244.5 363.5 2244.5 374.5C2244.5 398.5 2226 405 2214.5 418.5C2222.5 415.5 2232.5 416.5 2244.5 416.5V437.5H2187L2181.5 426.5L2219.5 382.5C2221.5 380 2221.5 379 2221.5 376.5C2221.5 372.5 2218.5 368 2212 368C2206.5 368 2203.5 372 2199.5 376.5L2183.5 368V366.5Z" fill="#7289DA"/>
<path d="M2724 291.5V243H2818V305C2818 350 2780 382 2724 382C2670 381 2634 346 2632.5 300V223C2633.5 174 2668 142.5 2724 141C2780 141 2798 170.5 2807.5 190.5L2758.5 213.5C2752 203 2745.5 193 2724 193C2706.47 193 2695 203 2692.5 217.999L2691.5 300C2693 315 2705.5 328 2724 328C2749 328 2760.5 315.5 2762 305.001V291.5H2724Z" fill="#7289DA"/>
<path d="M2847 378.5H3010.5V323.5H2906.5V287H3002.5V235.5H2907V200H3010.5V144H2847V378.5Z" fill="#7289DA"/>
<path d="M3043 378.5V144H3099L3172 274.5V144H3230.5V378.5H3172L3099 248V378.5H3043Z" fill="#7289DA"/>
</g>
<defs>
<filter id="filter0_d" x="591" y="134" width="2651.5" height="317.5" filterUnits="userSpaceOnUse" color-interpolation-filters="sRGB">
<feFlood flood-opacity="0" result="BackgroundImageFix"/>
<feColorMatrix in="SourceAlpha" type="matrix" values="0 0 0 0 0 0 0 0 0 0 0 0 0 0 0 0 0 0 127 0" result="hardAlpha"/>
<feOffset dx="2" dy="4"/>
<feGaussianBlur stdDeviation="5"/>
<feComposite in2="hardAlpha" operator="out"/>
<feColorMatrix type="matrix" values="0 0 0 0 0 0 0 0 0 0 0 0 0 0 0 0 0 0 0.25 0"/>
<feBlend mode="normal" in2="BackgroundImageFix" result="effect1_dropShadow"/>
<feBlend mode="normal" in="SourceGraphic" in2="effect1_dropShadow" result="shape"/>
</filter>
</defs>
</svg>
